<?xml version="1.0" standalone="no"?>
<!DOCTYPE svg PUBLIC "-//W3C//DTD SVG 20010904//EN"
 "http://www.w3.org/TR/2001/REC-SVG-20010904/DTD/svg10.dtd">
<svg version="1.0" xmlns="http://www.w3.org/2000/svg"
 width="512.000000pt" height="512.000000pt" viewBox="0 0 512.000000 512.000000"
 preserveAspectRatio="xMidYMid meet">
<metadata>
Created by potrace 1.11, written by Peter Selinger 2001-2013
</metadata>
<g transform="translate(0.000000,512.000000) scale(0.100000,-0.100000)"
fill="#000000" stroke="none">
<path d="M2410 4946 c-126 -24 -267 -83 -362 -153 -55 -40 -128 -120 -128
-139 0 -8 -11 -14 -27 -15 -139 -4 -290 -91 -372 -215 -64 -97 -75 -142 -77
-324 -2 -129 1 -175 13 -212 33 -100 125 -166 266 -193 104 -20 1556 -21 1668
-1 146 26 238 92 272 194 20 63 21 314 1 391 -53 201 -239 353 -440 360 -14 1
-26 11 -33 29 -44 104 -287 246 -476 278 -65 11 -243 11 -305 0z m213 -160
c104 -43 127 -190 42 -265 -114 -100 -285 -1 -260 150 17 98 124 155 218 115z
m663 -492 c61 -45 69 -65 72 -198 5 -143 -6 -178 -64 -222 l-37 -29 -698 0
c-689 0 -698 0 -725 21 -64 47 -69 63 -69 213 0 136 0 138 29 175 52 68 18 66
778 63 676 -2 687 -2 714 -23z"/>
<path d="M1920 4080 l0 -80 640 0 640 0 0 80 0 80 -640 0 -640 0 0 -80z"/>
<path d="M1176 4142 c-95 -33 -167 -106 -200 -208 -15 -46 -16 -188 -14 -1715
l3 -1664 25 -50 c31 -63 91 -123 155 -155 l50 -25 1344 -3 c1230 -2 1349 -1
1395 14 89 29 156 87 197 172 l24 47 3 650 3 650 -161 -160 -160 -160 0 -447
0 -448 -1280 0 -1280 0 0 1760 0 1760 -31 -2 c-17 -1 -50 -9 -73 -16z"/>
<path d="M3840 3713 l0 -447 138 136 c75 74 148 141 160 148 l24 12 -4 181
c-3 170 -5 185 -28 232 -45 89 -118 149 -215 174 -82 22 -75 65 -75 -436z"/>
<path d="M2790 3109 c-209 -208 -385 -379 -391 -379 -5 0 -65 56 -133 124
-151 151 -165 162 -206 148 -38 -14 -248 -224 -262 -263 -8 -23 -7 -35 6 -55
22 -33 527 -537 560 -559 20 -14 32 -15 55 -7 18 7 228 209 545 526 441 441
515 520 520 549 5 33 1 40 -118 161 -106 107 -130 126 -160 130 -36 5 -40 2
-416 -375z"/>
<path d="M4234 3416 c-30 -14 -274 -248 -274 -263 0 -10 622 -633 633 -633 16
0 250 244 263 276 17 41 18 84 2 121 -12 28 -391 419 -460 475 -45 35 -116 46
-164 24z"/>
<path d="M3267 2467 l-572 -573 -124 -374 c-69 -207 -124 -388 -122 -405 4
-57 54 -106 109 -107 17 -1 198 55 403 123 l373 124 568 567 c312 312 568 572
568 578 0 6 -142 152 -315 325 l-315 315 -573 -573z m-220 -869 l203 -203
-188 -62 c-103 -34 -193 -63 -200 -63 -16 0 -152 135 -152 151 0 19 122 379
129 379 3 0 97 -91 208 -202z"/>
</g>
</svg>
